<?xml version="1.0" encoding="UTF-8"?>
<svg version="1.1" xmlns="http://www.w3.org/2000/svg" width="3941" height="852">
<path d="M0 0 C5.16118222 3.16024648 10.39844483 6.172538 15.66040039 9.16162109 C23.37735734 13.54965317 31.06085498 17.99089809 38.72290039 22.47412109 C47.04643867 27.34298209 55.39759627 32.15881235 63.77832031 36.9284668 C70.5580383 40.79315613 77.30013576 44.72005645 84.03540039 48.66162109 C90.56949509 52.48484927 97.11053362 56.28774183 103.72290039 59.97412109 C110.1883921 63.5792759 116.58469867 67.29637864 122.97290039 71.03662109 C131.85806039 76.23851961 140.77719345 81.37737555 149.72290039 86.47412109 C161.55193927 93.2157203 173.33055211 100.04009658 185.07495117 106.92822266 C187.54348786 108.36937832 190.01979678 109.79577889 192.50024414 111.21630859 C201.64164749 116.47427339 210.26814386 122.17064324 218.72290039 128.47412109 C219.51051758 129.00134766 220.29813477 129.52857422 221.10961914 130.07177734 C221.64200195 130.53455078 222.17438477 130.99732422 222.72290039 131.47412109 C222.72290039 132.46412109 222.72290039 133.45412109 222.72290039 134.47412109 C221.86631836 134.87630859 221.86631836 134.87630859 220.99243164 135.28662109 C216.05143188 137.67464006 211.34215573 140.26930058 206.69165039 143.18505859 C200.02740888 147.32873201 193.23918455 151.23252386 186.41040039 155.09912109 C183.9706517 156.48548159 181.53213058 157.87398995 179.09399414 159.26318359 C178.48375397 159.61076721 177.87351379 159.95835083 177.24478149 160.31646729 C167.35770008 165.95535042 157.54149308 171.71707841 147.72290039 177.47412109 C135.900037 170.74299658 124.12548489 163.92967807 112.3581543 157.10205078 C103.47485813 151.9478438 94.58111192 146.81334436 85.66040039 141.72412109 C68.31021758 131.82384409 51.01745055 121.82540895 33.76928711 111.74853516 C17.58534427 102.29926082 1.3400893 92.95677259 -14.94238281 83.6784668 C-20.20507737 80.67418264 -25.43787543 77.62413014 -30.65209961 74.53662109 C-37.4521548 70.51986342 -44.29005041 66.57152161 -51.15209961 62.66162109 C-52.09102051 62.122229 -53.02994141 61.58283691 -53.99731445 61.02709961 C-71.95051277 50.84244659 -88.73874522 45.4738339 -109.33959961 50.84912109 C-122.25729559 55.176153 -134.60180907 62.45625753 -145.91381836 69.95068359 C-148.29464886 71.48543384 -150.71376476 72.83245234 -153.21459961 74.16162109 C-159.74429813 77.6447597 -166.04671316 81.49953634 -172.37255859 85.33618164 C-173.20601807 85.84060791 -174.03947754 86.34503418 -174.89819336 86.86474609 C-175.64512451 87.31881836 -176.39205566 87.77289063 -177.16162109 88.24072266 C-179.16452247 89.40848466 -181.19146028 90.46300928 -183.27709961 91.47412109 C-181.7546806 94.51895912 -179.32673877 95.03247349 -176.27709961 96.47412109 C-170.81553711 99.12159752 -165.54945591 101.9865133 -160.33959961 105.09912109 C-153.76342723 109.02270077 -147.13832947 112.84371468 -140.46459961 116.59912109 C-131.57009047 121.60716875 -122.6984644 126.65341829 -113.83959961 131.72412109 C-106.07213812 136.16921247 -98.29946609 140.60340587 -90.48999023 144.97436523 C-83.3045338 149.0044772 -76.16332686 153.11234424 -69.01452637 157.20697021 C-60.54669846 162.05537071 -52.05140689 166.85046018 -43.52709961 171.59912109 C-34.31422519 176.73202908 -25.19554014 182.00906577 -16.10449219 187.35424805 C-8.4649372 191.82708936 -0.72358984 196.08497529 7.06738281 200.28710938 C12.80108063 203.39093309 18.41050693 206.63664969 23.96777344 210.04394531 C29.41153213 213.35212688 34.99434378 216.38395075 40.59790039 219.41162109 C49.43091461 224.18795818 58.12832603 229.13703834 66.73803711 234.30371094 C68.7382207 235.48315499 70.75880411 236.61733127 72.78930664 237.74365234 C84.71975397 244.44255097 93.13886971 252.15178193 97.72290039 265.47412109 C98.56274317 269.02995252 98.84741345 272.31210102 98.84594822 275.96197987 C98.84793927 277.05875453 98.84993032 278.15552919 98.8519817 279.28553945 C98.84906886 280.48495111 98.84615602 281.68436277 98.84315491 282.92012024 C98.84443654 284.83763093 98.84443654 284.83763093 98.84574407 286.79387921 C98.84798007 290.33988482 98.84397997 293.88586023 98.83896601 297.431862 C98.83464887 301.25662238 98.83610884 305.08138105 98.83686829 308.90614319 C98.83739272 315.532066 98.83425433 322.15797897 98.82863045 328.78389931 C98.82050454 338.36387592 98.81789911 347.94384777 98.81664246 357.52382746 C98.81445366 373.06658754 98.80779822 388.60934238 98.79833984 404.15209961 C98.78916129 419.25073215 98.78208262 434.34936328 98.77783203 449.44799805 C98.77743795 450.84394155 98.77743795 450.84394155 98.7770359 452.26808593 C98.77573087 456.93676298 98.77446716 461.60544004 98.773224 466.27411711 C98.76285674 505.00745545 98.74524308 543.74078792 98.72290039 582.47412109 C100.31075377 581.68768133 101.8977443 580.8994993 103.484375 580.1105957 C104.36822372 579.6718663 105.25207245 579.2331369 106.16270447 578.78111267 C109.62980814 577.0111406 112.95541221 575.04926067 116.28540039 573.03662109 C123.58002834 568.67934822 130.97963623 564.53164875 138.41040039 560.41162109 C160.80461856 547.94304541 180.31645987 536.79559354 188.59790039 511.22412109 C190.76959329 502.79050057 190.86211138 494.24260814 190.76672363 485.58215332 C190.75966699 484.53119177 190.75261035 483.48023023 190.74533987 482.39742136 C190.72942799 480.10865305 190.71112322 477.8199004 190.69069099 475.53116798 C190.64000359 469.8319996 190.60409663 464.1327374 190.56625009 458.43347168 C190.55245571 456.39075093 190.53798376 454.34803586 190.52338219 452.30532074 C190.45325837 442.35662017 190.40998438 432.40801147 190.38244629 422.45910645 C190.37940643 421.37728809 190.37940643 421.37728809 190.37630516 420.27361482 C190.35772546 413.58301548 190.34100774 406.89241214 190.32586765 400.20180416 C190.315447 395.62346574 190.30407573 391.04513056 190.29174805 386.46679688 C190.28971388 385.706487 190.28767972 384.94617712 190.28558391 384.16282755 C190.25088135 371.83481517 190.15905502 359.50782955 190.04724377 347.18030411 C189.93364867 334.50332645 189.88484073 321.82725928 189.89503336 309.14977217 C189.89921524 301.33976133 189.85282757 293.5334451 189.74076939 285.72422254 C189.66020111 279.7376238 189.66951249 273.75456528 189.71196175 267.76743507 C189.71530287 265.31717386 189.68961908 262.86667161 189.63249016 260.4170742 C189.23515898 242.37515168 189.23515898 242.37515168 193.39536667 237.52380753 C197.43741428 234.23284429 201.85959121 232.13895922 206.70141315 230.28135395 C209.44106019 229.18734106 211.90211583 227.72572322 214.41430664 226.18896484 C216.03730256 225.26195346 217.66098888 224.33614968 219.28540039 223.41162109 C220.16615234 222.90904785 221.0469043 222.40647461 221.9543457 221.88867188 C227.9131304 218.49244537 233.88558721 215.12112943 239.88037109 211.78881836 C243.41374639 209.8140587 246.89510566 207.77452533 250.34790039 205.66162109 C251.11972656 205.19320801 251.89155273 204.72479492 252.68676758 204.2421875 C254.17835897 203.33327886 255.66375885 202.41410734 257.1418457 201.48339844 C262.2355872 198.38876096 262.2355872 198.38876096 264.94458008 198.86328125 C265.53142578 199.0648584 266.11827148 199.26643555 266.72290039 199.47412109 C269.36477144 213.99610411 270.04913713 228.38332843 270.31225586 243.1027832 C270.33181328 244.09172069 270.35137069 245.08065819 270.37152076 246.09956348 C270.83904524 269.82346072 270.87071244 293.54727379 270.85722589 317.27493787 C270.85462943 323.30804307 270.85705873 329.34114703 270.85861206 335.37425232 C270.86040962 345.46263917 270.85808833 355.55101859 270.85327148 365.6394043 C270.84779634 377.23927254 270.84962469 388.83912328 270.85509789 400.43899113 C270.85965446 410.50725629 270.86026826 420.57551622 270.85765922 430.64378208 C270.85611512 436.61129 270.85585137 442.57878971 270.85919571 448.54629707 C270.86211315 454.1372846 270.86002866 459.72824971 270.85430145 465.31923485 C270.85299602 467.35033761 270.85332944 469.3814423 270.85556412 471.41254425 C270.86568232 481.5536774 270.74960773 491.67229824 270.29293823 501.80430603 C270.25629724 502.64786701 270.21965624 503.49142799 270.18190491 504.36055142 C268.96053404 528.64127483 261.03756677 550.94327654 248.34790039 571.53662109 C247.91904541 572.23408447 247.49019043 572.93154785 247.04833984 573.65014648 C245.9991778 575.29745438 244.86832921 576.89223706 243.72290039 578.47412109 C243.06290039 578.47412109 242.40290039 578.47412109 241.72290039 578.47412109 C241.47540039 579.19599609 241.22790039 579.91787109 240.97290039 580.66162109 C239.60020447 583.75018691 237.99936743 585.98423527 235.72290039 588.47412109 C235.06290039 588.47412109 234.40290039 588.47412109 233.72290039 588.47412109 C233.45477539 589.06322266 233.18665039 589.65232422 232.91040039 590.25927734 C224.0517616 606.78180429 199.2747827 617.59672528 183.72290039 626.47412109 C181.94667871 627.49464118 180.1706341 628.51546952 178.39477539 629.53662109 C173.17864743 632.52960068 167.95183946 635.5035954 162.72290039 638.47412109 C147.7493929 646.9778464 147.7493929 646.9778464 132.94262695 655.76660156 C122.79342792 661.88573403 112.43973611 667.66713489 102.14038086 673.52880859 C85.51410759 682.99288528 68.88982882 692.463453 52.41577148 702.19091797 C48.85568416 704.29250435 45.29029451 706.38496591 41.72290039 708.47412109 C40.82055664 709.00312012 39.91821289 709.53211914 38.98852539 710.07714844 C36.11254465 711.75852839 33.23097245 713.42993521 30.34790039 715.09912109 C29.43733887 715.6327124 28.52677734 716.16630371 27.58862305 716.71606445 C26.7383252 717.20598877 25.88802734 717.69591309 25.01196289 718.20068359 C23.87815186 718.85931396 23.87815186 718.85931396 22.72143555 719.53125 C20.72290039 720.47412109 20.72290039 720.47412109 17.72290039 720.47412109 C17.72501636 719.72842761 17.72713233 718.98273412 17.72931242 718.21444386 C17.85552548 673.72790238 17.98085496 629.24135849 18.10508266 584.75481142 C18.12009768 579.37812621 18.13511986 574.00144103 18.15014648 568.62475586 C18.1531371 567.55463901 18.15612771 566.48452217 18.15920895 565.38197754 C18.20724866 548.19824136 18.25586506 531.01450687 18.3047058 513.83077296 C18.35504466 496.11528535 18.40473784 478.39979601 18.45386744 460.68430501 C18.48138277 450.76897355 18.50917154 440.85364303 18.53770447 430.93831444 C18.66461502 386.78345671 18.76189582 342.62919077 18.72290039 298.47412109 C17.93805267 298.16537552 17.15320496 297.85662994 16.34457397 297.53852844 C14.04597538 296.60529051 12.01843744 295.58649323 9.88696289 294.32958984 C9.16371826 293.90637451 8.44047363 293.48315918 7.6953125 293.04711914 C6.53334351 292.36129761 6.53334351 292.36129761 5.34790039 291.66162109 C-3.11475246 286.71041478 -11.63180894 281.86349268 -20.18286133 277.06665039 C-25.50204672 274.07419607 -30.76632937 271.01114311 -35.97973633 267.83764648 C-38.40074984 266.40073251 -40.85836204 265.05395601 -43.33959961 263.72412109 C-48.9235625 260.71432549 -54.3779256 257.50268003 -59.82421875 254.25244141 C-64.59160098 251.42033315 -69.42957138 248.74575692 -74.30444336 246.10351562 C-79.15882993 243.44269303 -83.95631063 240.68320548 -88.75723267 237.92739868 C-91.8339108 236.16160453 -94.91295084 234.39993815 -97.99194336 232.63818359 C-98.6108696 232.28397842 -99.22979584 231.92977325 -99.86747742 231.56483459 C-108.3731775 226.69967542 -116.9083574 221.88669367 -125.44311523 217.07275391 C-134.05813447 212.21307558 -142.66955658 207.34702899 -151.27709961 202.47412109 C-152.25501465 201.92062988 -152.25501465 201.92062988 -153.25268555 201.35595703 C-159.11340897 198.03477049 -164.94712037 194.67137665 -170.75756836 191.26318359 C-181.12168447 185.18633955 -191.50922269 179.1881467 -202.06005859 173.44091797 C-207.57744825 170.42892705 -213.03513294 167.32914496 -218.46459961 164.16162109 C-225.81651876 159.873066 -233.21998924 155.68461784 -240.65209961 151.53662109 C-249.28345823 146.71881431 -257.88811954 141.85874232 -266.46411133 136.94311523 C-272.8881969 133.26253515 -279.32908381 129.61259804 -285.77709961 125.97412109 C-300.45714859 117.68540276 -315.11964795 109.37228762 -329.63183594 100.79223633 C-334.46937564 97.9357562 -339.34472505 95.16450722 -344.27709961 92.47412109 C-342.00979285 89.9491865 -339.83185261 88.61500393 -336.76928711 87.18115234 C-331.13908281 84.44953605 -325.78473188 81.34812483 -320.40209961 78.16162109 C-311.33121324 72.83100512 -302.22889214 67.56116668 -293.08959961 62.34912109 C-292.49669128 62.01079254 -291.90378296 61.67246399 -291.29290771 61.32388306 C-286.32409216 58.488586 -281.35349082 55.65642784 -276.38208008 52.82568359 C-265.40540076 46.57482665 -254.46599929 40.26507455 -243.56030273 33.89111328 C-224.75833242 22.9062991 -205.86757243 12.07583764 -186.95288086 1.28662109 C-182.69534767 -1.14240719 -178.44249675 -3.57922609 -174.19506836 -6.02587891 C-172.78318237 -6.83762573 -172.78318237 -6.83762573 -171.34277344 -7.66577148 C-169.62647221 -8.65294447 -167.91133991 -9.64215447 -166.19775391 -10.6340332 C-109.45829261 -43.22525572 -53.86980826 -32.99238978 0 0 Z " fill="#000000" transform="translate(509.277099609375,81.52587890625)"/>
<path d="M0 0 C0.69762451 0.35562012 1.39524902 0.71124023 2.11401367 1.07763672 C6.78880537 3.48620718 11.32503424 6.06695001 15.796875 8.8359375 C18.2213804 10.30853977 20.68736788 11.66010883 23.1875 13 C32.79862838 18.18782498 42.16106681 23.84004049 51.5 29.5 C55.49650036 31.90720987 59.5698348 34.13751434 63.67578125 36.3515625 C68.35775725 38.92850512 72.98933715 41.59087043 77.625 44.25 C83.80969347 47.79516041 89.9996756 51.31728524 96.2734375 54.703125 C116.12794921 65.47351765 135.65308689 76.83103807 155.17578125 88.1875 C156.00505127 88.66920654 156.83432129 89.15091309 157.6887207 89.6472168 C159.24916432 90.5537096 160.808959 91.46132098 162.36791992 92.37036133 C167.29642298 95.23184286 172.2772249 97.98393755 177.28564453 100.70288086 C182.06499229 103.30707061 186.8138957 105.96527211 191.5625 108.625 C192.62654053 109.22078857 193.69058105 109.81657715 194.78686523 110.43041992 C204.31541695 115.77634642 213.80382285 121.19115981 223.28369141 126.62280273 C229.4847715 130.17511131 235.69680703 133.70523738 241.9375 137.1875 C247.63965469 140.37117806 253.24331742 143.69933852 258.82861328 147.08325195 C263.31560374 149.79227692 267.87296875 152.33455175 272.4921875 154.8125 C275.17662006 156.27818425 277.80637265 157.81581342 280.4375 159.375 C284.38231171 161.71190025 288.36468809 163.91763367 292.42578125 166.046875 C305.90847329 173.14717359 318.45561193 179.89675147 325.8125 193.9375 C326.43705078 195.08798828 326.43705078 195.08798828 327.07421875 196.26171875 C329.84444351 204.13986724 329.2705006 213.06109616 329.25871277 221.31211853 C329.26097833 222.48896463 329.26324388 223.66581074 329.26557809 224.87831885 C329.27078416 228.11815261 329.271568 231.35795116 329.27038372 234.59778774 C329.27017854 238.10228992 329.27570946 241.606784 329.28044128 245.11128235 C329.28872229 251.9663452 329.29149494 258.82139944 329.29205366 265.67646687 C329.2925299 271.25060137 329.29459 276.82473305 329.29775429 282.39886665 C329.30655278 298.22127249 329.31117476 314.04367156 329.31042381 329.86607986 C329.31036388 331.14364596 329.31036388 331.14364596 329.31030273 332.44702148 C329.31026185 333.29977811 329.31022097 334.15253473 329.31017885 335.03113247 C329.30977229 348.85497729 329.31934652 362.67879489 329.3334411 376.50263184 C329.34781711 390.71516944 329.35471066 404.92769377 329.35384732 419.14023882 C329.35351585 427.11223633 329.35624147 435.08420527 329.36702538 443.05619621 C329.37614635 449.84198239 329.37829241 456.62772703 329.37151595 463.41351669 C329.36825922 466.8721081 329.3681634 470.33061989 329.3768692 473.78920364 C329.38460076 477.54650574 329.37993642 481.30360012 329.37223816 485.06089783 C329.37738172 486.14262848 329.38252529 487.22435914 329.38782471 488.33886951 C329.29134432 509.71597462 320.97448837 529.17058579 306.57421875 544.94921875 C305.43894494 546.06439922 304.2838392 547.15932782 303.125 548.25 C302.465 549.24 301.805 550.23 301.125 551.25 C300.465 551.25 299.805 551.25 299.125 551.25 C299.125 551.91 299.125 552.57 299.125 553.25 C297.07694932 554.93449139 295.04030831 556.47869756 292.875 558 C292.23747803 558.44883545 291.59995605 558.8976709 290.94311523 559.36010742 C267.43544774 575.58650958 239.82084952 579.37589144 212.01586914 574.66259766 C203.86154792 573.13809041 195.98511677 570.87887122 188.125 568.25 C187.48030762 568.04036621 186.83561523 567.83073242 186.17138672 567.61474609 C170.16202947 562.34055003 155.46716973 553.99566435 141.125 545.25 C139.83490109 544.46831137 138.5445591 543.68702368 137.25390625 542.90625 C136.66593262 542.55038818 136.07795898 542.19452637 135.47216797 541.82788086 C129.67588845 538.32711833 123.83761609 534.97515491 117.8671875 531.77734375 C113.70423068 529.45865983 109.68436917 526.91907526 105.65625 524.375 C101.89385737 522.05716782 97.99951585 519.99050718 94.11425781 517.88769531 C88.94257543 515.05433649 83.85069753 512.08365109 78.75 509.125 C76.43769304 507.7874249 74.12522679 506.45012983 71.8125 505.11328125 C70.67683594 504.45666504 69.54117188 503.80004883 68.37109375 503.12353516 C63.83795335 500.50716035 59.29570082 497.90697597 54.75 495.3125 C53.92483887 494.84134766 53.09967773 494.37019531 52.24951172 493.88476562 C48.42397451 491.7012365 44.59754038 489.51928611 40.77050781 487.33837891 C-24.71102931 450.02167847 -24.71102931 450.02167847 -38.875 433.25 C-40.05835937 431.89841797 -40.05835937 431.89841797 -41.265625 430.51953125 C-47.29345226 423.52096494 -52.34741483 416.33562684 -56.875 408.25 C-57.20741699 407.65767578 -57.53983398 407.06535156 -57.88232422 406.45507812 C-69.09917394 386.15843286 -74.74654503 364.53068024 -75.1855011 341.41069031 C-75.20586737 340.48209768 -75.22623363 339.55350506 -75.24721706 338.59677327 C-75.31213627 335.53944729 -75.37017365 332.48204704 -75.42700195 329.42456055 C-75.44791669 328.35438545 -75.46883142 327.28421035 -75.49037993 326.1816057 C-75.96159241 301.78028433 -76.03946604 277.38119622 -76.04225707 252.97600389 C-76.0429821 249.39102613 -76.04514217 245.80605191 -76.04775429 242.22107506 C-76.05689457 229.64274232 -76.06110168 217.06441994 -76.06030273 204.48608398 C-76.0596976 192.86173429 -76.07036323 181.23743034 -76.0860464 169.61309224 C-76.09917238 159.51587582 -76.10448486 149.41867434 -76.10384732 139.32144946 C-76.10359482 133.33996768 -76.10631028 127.35852727 -76.11702538 121.37705421 C-76.12679875 115.77451544 -76.12672322 110.17205705 -76.11950874 104.56951523 C-76.11847593 102.53560326 -76.12074655 100.50168599 -76.1268692 98.46778297 C-76.21295911 67.85528007 -74.34689914 30.7803985 -52.0625 7.0625 C-49.875 5.25 -49.875 5.25 -47.875 5.25 C-47.875 4.59 -47.875 3.93 -47.875 3.25 C-33.1483998 -7.9986159 -16.09316953 -8.36331729 0 0 Z M5.125 95.25 C5.12076806 95.97898152 5.11653612 96.70796305 5.11217594 97.45903492 C5.00708579 115.52207989 4.89825139 133.58509914 4.78566074 151.64809895 C4.73128691 160.38461198 4.67802213 169.12112871 4.62768555 177.85766602 C4.56919052 187.98456131 4.50717783 198.11143057 4.44140625 208.23828125 C4.43603938 209.0702674 4.43067251 209.90225354 4.425143 210.75945139 C4.30834022 228.71502029 4.16479409 246.66914083 3.85571289 264.62255859 C3.84399005 265.30350488 3.8322672 265.98445116 3.82018912 266.68603218 C3.70009821 273.58882107 3.56865797 280.49130313 3.42457581 287.39363098 C0.773483 334.04697478 0.773483 334.04697478 17.125 376.25 C18.115 377.735 18.115 377.735 19.125 379.25 C19.785 379.25 20.445 379.25 21.125 379.25 C21.3621875 379.83652344 21.599375 380.42304687 21.84375 381.02734375 C29.32892751 394.01230107 54.35107981 403.56671908 66.91992188 410.60839844 C73.16728987 414.11543408 79.2891696 417.75279743 85.359375 421.55859375 C88.93521411 423.7455123 92.61255615 425.70914572 96.30859375 427.68359375 C99.50267392 429.46005166 102.58932441 431.37387551 105.6875 433.3125 C109.3943716 435.62112744 113.06483267 437.79496513 117 439.6875 C121.00873868 441.62823857 124.82295709 443.8114608 128.625 446.125 C140.00150993 453.04402062 151.57371415 459.62856737 163.125 466.25 C164.35162354 466.95552002 164.35162354 466.95552002 165.60302734 467.67529297 C172.87658121 471.85454566 180.20793743 475.88724639 187.6875 479.6875 C188.33090332 480.01806396 188.97430664 480.34862793 189.63720703 480.68920898 C199.17630003 485.45126993 208.4384054 486.68826212 218.77734375 484.0625 C229.8793068 480.22022327 239.27591799 473.47049046 244.625 462.9375 C249.79078651 451.73061314 249.26927082 440.31733608 249.20703125 428.1640625 C249.20241861 426.55148416 249.19819054 424.93890468 249.19429016 423.32632446 C249.1838443 419.54423135 249.16944324 415.76217376 249.15289307 411.98010254 C249.13190371 407.12228228 249.11511235 402.2644607 249.10101318 397.40661621 C249.05122596 380.41382423 248.98272028 363.42124193 248.88926506 346.42863083 C248.84404699 338.14953526 248.80454681 329.87048892 248.77856445 321.59130859 C248.75552636 314.25223779 248.72213348 306.91329991 248.67629844 299.57433474 C248.65258319 295.72470176 248.63370964 291.87519774 248.62738609 288.02549362 C248.6213019 284.42815756 248.60118421 280.83116123 248.57072449 277.23395157 C248.55791283 275.30912487 248.55950066 273.38421864 248.5617218 271.45935059 C248.37650108 254.12789774 242.76420643 239.16111972 231.125 226.25 C230.61324219 225.68023437 230.10148438 225.11046875 229.57421875 224.5234375 C228.16592963 222.99441152 228.16592963 222.99441152 226.125 221.25 C225.465 221.25 224.805 221.25 224.125 221.25 C224.125 220.59 224.125 219.93 224.125 219.25 C223.135 219.25 222.145 219.25 221.125 219.25 C221.125 218.59 221.125 217.93 221.125 217.25 C219.56050411 216.02033119 219.56050411 216.02033119 217.51171875 214.8671875 C216.75826172 214.42246094 216.00480469 213.97773438 215.22851562 213.51953125 C214.43123047 213.05933594 213.63394531 212.59914063 212.8125 212.125 C212.02681641 211.65707031 211.24113281 211.18914062 210.43164062 210.70703125 C206.07497808 208.00403585 206.07497808 208.00403585 201.125 207.25 C201.125 206.59 201.125 205.93 201.125 205.25 C199.3585343 204.2423048 197.58666177 203.24408286 195.8125 202.25 C194.82636719 201.693125 193.84023438 201.13625 192.82421875 200.5625 C190.17557529 199.03135247 190.17557529 199.03135247 187.125 199.25 C187.125 198.59 187.125 197.93 187.125 197.25 C186.26519531 196.8375 185.40539062 196.425 184.51953125 196 C177.15057293 192.39989823 170.15339775 188.52564339 163.203125 184.15234375 C159.53875347 181.88768774 155.78725671 179.83972461 151.9921875 177.8046875 C148.73891201 176.04064983 145.52272342 174.21572849 142.3125 172.375 C141.71840332 172.03436523 141.12430664 171.69373047 140.51220703 171.34277344 C139.30550394 170.65034408 138.09896108 169.95763541 136.89257812 169.26464844 C134.11833616 167.67214158 131.34026403 166.08635339 128.5625 164.5 C124.50148846 162.18033078 120.4414902 159.85890695 116.3828125 157.53515625 C114.65109146 156.54418381 112.91931907 155.5533011 111.1875 154.5625 C110.30570068 154.05783203 109.42390137 153.55316406 108.51538086 153.03320312 C103.72647276 150.2959501 98.92984725 147.57334757 94.12109375 144.87109375 C84.94517215 139.71359042 75.82226139 134.54028408 66.90234375 128.94921875 C63.25057028 126.71501135 59.50102429 124.69354108 55.7265625 122.67578125 C53.20358976 121.29307096 50.76034281 119.82346486 48.3125 118.3125 C43.70278111 115.50690432 38.92682164 113.09811936 34.09106445 110.71508789 C28.94261265 108.17576794 24.0434064 105.39457451 19.11328125 102.453125 C18.02402344 101.80859375 16.93476563 101.1640625 15.8125 100.5 C14.78511719 99.88640625 13.75773437 99.2728125 12.69921875 98.640625 C10.31936142 97.09156879 10.31936142 97.09156879 8.125 97.25 C8.125 96.59 8.125 95.93 8.125 95.25 C7.135 95.25 6.145 95.25 5.125 95.25 Z " fill="#000000" transform="translate(126.875,238.75)"/>
<path d="M0 0 C0.97960693 0.47542236 0.97960693 0.47542236 1.97900391 0.96044922 C17.85984818 8.76930688 32.01375175 19.01892492 45 31 C45.57991699 31.53463867 46.15983398 32.06927734 46.75732422 32.62011719 C79.9289686 63.60472074 102.42985114 108.6675553 104.12451172 154.35693359 C105.27299602 207.86488861 89.37648516 256.09005724 51.984375 295.234375 C43.86748671 303.59605834 35.66167741 311.43088958 26 318 C25.30712891 318.47244141 24.61425781 318.94488281 23.90039062 319.43164062 C-17.91124389 347.58312143 -67.30841903 358.1784349 -117 349 C-148.33340223 342.56273195 -176.6227887 327.53694074 -199.9765625 305.8125 C-202.07089533 303.85019557 -202.07089533 303.85019557 -205 302 C-205.00238835 302.73145296 -205.00477671 303.46290592 -205.00723743 304.21652412 C-205.06638799 322.01903863 -205.14193843 339.82141449 -205.23571491 357.6237812 C-205.28066967 366.23289897 -205.32008507 374.8419754 -205.34643555 383.45117188 C-205.36941822 390.95544494 -205.40281924 398.45958716 -205.44870156 405.96375644 C-205.47263021 409.93672491 -205.4913613 413.90956382 -205.49761391 417.88260269 C-205.50366643 421.62386905 -205.52367205 425.36480391 -205.55427551 429.10594749 C-205.56723141 431.13009662 -205.56548626 433.15432319 -205.5632782 435.17851257 C-205.57581635 436.38998459 -205.58835449 437.6014566 -205.60127258 438.84963989 C-205.60818603 440.42314052 -205.60818603 440.42314052 -205.61523914 442.02842903 C-206.18059251 446.39474546 -207.71090604 449.79407339 -210.9375 452.8125 C-215.26823395 455.30595288 -219.69142587 455.17347965 -224.58203125 455.203125 C-225.31443527 455.20882507 -226.04683929 455.21452515 -226.80143738 455.22039795 C-228.3488115 455.22982481 -229.89620549 455.23637272 -231.44360352 455.24023438 C-233.7941447 455.24992433 -236.14380498 455.28096179 -238.49414062 455.3125 C-240.00259901 455.3190326 -241.51106361 455.32428206 -243.01953125 455.328125 C-243.71456253 455.3404718 -244.40959381 455.3528186 -245.12568665 455.36553955 C-250.20332097 455.34270236 -253.56117458 454.27831672 -258 452 C-262.35510118 447.49972878 -262.14645859 442.53391565 -262.13142776 436.56201458 C-262.1334804 435.80648171 -262.13553303 435.05094885 -262.13764787 434.27252105 C-262.14332795 431.72639815 -262.14185938 429.18032918 -262.14044189 426.63420105 C-262.14302495 424.79607608 -262.14603794 422.95795167 -262.1494453 421.11982805 C-262.15752548 416.05727501 -262.15930543 410.99473614 -262.16004276 405.93217742 C-262.16189153 400.47670795 -262.16943792 395.02124586 -262.17617798 389.56578064 C-262.1897686 377.63204479 -262.19578703 365.6983123 -262.20018864 353.76457 C-262.20294957 346.31634115 -262.20718663 338.8681136 -262.21169281 331.41988564 C-262.22388595 310.80679881 -262.23418549 290.19371303 -262.2375679 269.58062267 C-262.23778747 268.26096947 -262.23800703 266.94131627 -262.23823325 265.58167358 C-262.23845389 264.24546531 -262.23867438 262.90925704 -262.2388947 261.57304877 C-262.23933725 258.8923678 -262.23978437 256.21168683 -262.24023438 253.53100586 C-262.24034377 252.86635288 -262.24045316 252.20169989 -262.24056586 251.51690591 C-262.24419729 229.96074406 -262.26012088 208.40461583 -262.28342474 186.84846685 C-262.30801526 164.06052244 -262.32173363 141.27259452 -262.32293582 118.48463613 C-262.32385346 106.06148236 -262.32962825 93.63837261 -262.34775543 81.21523094 C-262.36313401 70.63838109 -262.36829012 60.06158887 -262.36001733 49.48472997 C-262.35610301 44.08645623 -262.35707858 38.68829861 -262.37107468 33.29003906 C-262.3837665 28.34975189 -262.3826577 23.40966866 -262.37048396 18.46938197 C-262.36851878 16.6806924 -262.37164312 14.89198863 -262.38032833 13.10331907 C-262.39137985 10.67380056 -262.38396172 8.24500701 -262.3719368 5.81550884 C-262.38332959 4.77150047 -262.38332959 4.77150047 -262.39495254 3.70640102 C-262.34153261 -1.28597539 -261.28349998 -4.64577828 -259 -9 C-254.31116909 -12.39109134 -249.87867537 -12.44169459 -244.3125 -12.3984375 C-243.49177002 -12.40130768 -242.67104004 -12.40417786 -241.82543945 -12.40713501 C-240.09748643 -12.40916823 -238.36951001 -12.40369044 -236.64160156 -12.39111328 C-234.0079363 -12.37504841 -231.37580546 -12.39098658 -228.7421875 -12.41015625 C-227.0572883 -12.40817369 -225.37239006 -12.40432974 -223.6875 -12.3984375 C-222.90608643 -12.40451019 -222.12467285 -12.41058289 -221.31958008 -12.4168396 C-216.52763182 -12.35568325 -213.04679642 -11.83111367 -209 -9 C-205.86552907 -4.45503792 -205.53501768 -0.13084415 -205.48828125 5.2421875 C-205.47033005 6.01055939 -205.45237885 6.77893127 -205.43388367 7.57058716 C-205.38005042 10.00533695 -205.34597308 12.4398938 -205.3125 14.875 C-205.27930295 16.53388086 -205.24481109 18.19273635 -205.20898438 19.8515625 C-205.12434009 23.90090182 -205.05740143 27.95018661 -205 32 C-204.21423584 31.269021 -203.42847168 30.53804199 -202.61889648 29.78491211 C-191.52859457 19.5113802 -191.52859457 19.5113802 -186.0625 15.5625 C-185.45172607 15.12059326 -184.84095215 14.67868652 -184.21166992 14.22338867 C-164.39148624 0.2374213 -142.60929036 -9.53581798 -119 -15 C-118.33436035 -15.16371094 -117.6687207 -15.32742188 -116.98291016 -15.49609375 C-78.42426633 -24.63312367 -35.08903717 -17.15409243 0 0 Z M-178 81 C-200.68967322 108.35388083 -211.54929234 143.08798224 -208.80957031 178.45849609 C-205.46544601 212.83472896 -187.92124632 246.34584317 -161.625 268.8125 C-134.06760999 291.47819331 -102.2402393 301.95296106 -66.49365234 298.77734375 C-34.57034656 294.91855727 -4.37739639 276.46314515 15.65429688 251.57446289 C37.89663119 223.20025217 49.40243 188.00599809 45.49609375 151.92578125 C42.19071155 125.55315795 31.5401008 100.10069945 14 80 C13.19046875 79.04609375 12.3809375 78.0921875 11.546875 77.109375 C-8.76173452 53.67432838 -38.97128848 37.83630888 -69.93261719 35.14501953 C-112.03645022 32.1915858 -150.05849499 49.57804629 -178 81 Z " fill="#000000" transform="translate(3173,274)"/>
<path d="M0 0 C0.72815918 -0.00287018 1.45631836 -0.00574036 2.20654297 -0.00869751 C3.73601058 -0.01072614 5.26550486 -0.00528087 6.79492188 0.00732422 C9.11908685 0.02339661 11.44151329 0.00743602 13.765625 -0.01171875 C15.26042046 -0.0097361 16.75521484 -0.00589198 18.25 0 C18.93562012 -0.00607269 19.62124023 -0.01214539 20.32763672 -0.0184021 C25.35107987 0.05383836 28.72707554 1.14656274 33.125 3.3984375 C37.18147465 7.72534379 37.27066623 12.03293352 37.25642776 17.70055103 C37.2584804 18.45354128 37.26053303 19.20653152 37.26264787 19.98233965 C37.26833849 22.525825 37.26685808 25.06925656 37.26544189 27.61274719 C37.26802435 29.446597 37.27103717 31.28044625 37.2744453 33.11429471 C37.28253259 38.16963614 37.28430583 43.22496338 37.28504276 48.28031051 C37.2868903 53.72623507 37.29443609 59.17215222 37.30117798 64.61807251 C37.31477381 76.53320598 37.32078788 88.4483361 37.32518864 100.36347604 C37.32794879 107.79912847 37.33218571 115.23477959 37.33669281 122.67043114 C37.34888681 143.24573466 37.35918606 163.82103713 37.3625679 184.39634418 C37.36278747 185.71381646 37.36300703 187.03128873 37.36323325 188.3886844 C37.36345389 189.72269935 37.36367438 191.0567143 37.3638947 192.39072925 C37.36433726 195.06704541 37.36478437 197.74336157 37.36523438 200.41967773 C37.36539846 201.41503541 37.36539846 201.41503541 37.36556586 202.43050133 C37.36919733 223.95183422 37.38512064 245.47313345 37.40842474 266.99445345 C37.43301137 289.74172134 37.44673346 312.48897083 37.44793582 335.23625249 C37.44885369 347.63870948 37.45463422 360.0411224 37.47275543 372.44356728 C37.488129 383.00290304 37.49329311 393.5621811 37.48501733 404.12152592 C37.48110117 409.5115678 37.48208745 414.90149338 37.49607468 420.29152107 C37.50875566 425.22316067 37.50766737 430.15459587 37.49548396 435.08623495 C37.49351687 436.87291778 37.49665178 438.65961481 37.50532833 440.44627766 C37.51635914 442.87070194 37.50897679 445.29439701 37.4969368 447.71880054 C37.50453199 448.41611464 37.51212718 449.11342874 37.51995254 449.83187357 C37.4621039 455.20982927 36.05501899 459.17488621 32.52294922 463.24414062 C28.70769022 465.08068558 24.93932409 464.86622959 20.7578125 464.8671875 C19.84546844 464.87480103 18.93312439 464.88241455 17.99313354 464.89025879 C16.06494886 464.90105344 14.13670574 464.90391547 12.20849609 464.89941406 C9.26690428 464.89844308 6.32793312 464.94004251 3.38671875 464.984375 C1.51042209 464.98958332 -0.36588361 464.99227017 -2.2421875 464.9921875 C-3.1173703 465.00858276 -3.9925531 465.02497803 -4.89425659 465.04187012 C-9.1095471 464.99446868 -12.01806797 464.74478449 -15.41455078 462.11132812 C-19.52173589 457.58274697 -19.05467395 453.48601357 -19.19140625 447.5703125 C-19.21218735 446.82130676 -19.23296844 446.07230103 -19.25437927 445.30059814 C-19.31957088 442.91663462 -19.37861783 440.53256438 -19.4375 438.1484375 C-19.48071416 436.52863496 -19.52432937 434.90884307 -19.56835938 433.2890625 C-19.67522096 429.32562918 -19.77657333 425.3620889 -19.875 421.3984375 C-20.64553711 422.12144043 -21.41607422 422.84444336 -22.20996094 423.58935547 C-27.94477132 428.93341377 -33.64831475 434.07851151 -40.125 438.5234375 C-40.84115479 439.02004883 -41.55730957 439.51666016 -42.29516602 440.02832031 C-80.57494872 466.16159311 -127.88903018 477.68354309 -173.875 469.3984375 C-224.94207061 459.50212358 -268.72267336 431.84332958 -298.07666016 388.62939453 C-300.49376802 384.96883446 -302.70874309 381.21142076 -304.875 377.3984375 C-305.52855469 376.27695312 -306.18210937 375.15546875 -306.85546875 374 C-318.2367961 353.97668267 -325.23720062 331.24914146 -327.875 308.3984375 C-327.98585938 307.48964844 -328.09671875 306.58085937 -328.2109375 305.64453125 C-333.0855972 258.28128364 -319.41047889 209.81624251 -289.875 172.3984375 C-286.98249073 168.95261775 -283.96311807 165.66785409 -280.875 162.3984375 C-279.78743658 161.11033048 -278.70398087 159.81874216 -277.625 158.5234375 C-255.32300185 133.10120567 -223.31294441 115.02916113 -190.875 106.3984375 C-189.76825928 106.10114746 -189.76825928 106.10114746 -188.63916016 105.79785156 C-141.37505423 93.43181811 -92.69409118 102.02725815 -50.875 126.3984375 C-39.65637003 133.33404946 -29.14154117 142.03787001 -19.875 151.3984375 C-19.87280016 150.31810194 -19.87280016 150.31810194 -19.87055588 149.21594143 C-19.83348188 131.68009479 -19.77445937 114.14445909 -19.69109726 96.60877132 C-19.65131131 88.12858201 -19.61891659 79.64848543 -19.60400391 71.16821289 C-19.59098505 63.77560346 -19.56401454 56.38319813 -19.52038693 48.99070364 C-19.4977772 45.07746658 -19.48208901 41.16448119 -19.48311615 37.25117302 C-19.48386307 33.56481355 -19.46590036 29.87901031 -19.43383217 26.1927948 C-19.42130456 24.20104328 -19.42839476 22.20919834 -19.43614197 20.21742249 C-19.3573745 13.44615745 -19.12738319 8.81004224 -14.875 3.3984375 C-9.99894996 0.5358044 -5.55218907 -0.049177 0 0 Z M-238.875 199.3984375 C-263.67440132 229.1293483 -271.57780352 264.48965526 -269.875 302.3984375 C-266.8562143 335.77106154 -248.04762538 367.06484542 -223 388.6484375 C-194.92954247 411.12659172 -162.77253583 420.69086786 -126.87451172 417.09814453 C-93.28182619 412.36805338 -62.70920696 392.81637883 -42.140625 366.12988281 C-38.26412442 360.82661466 -35.03162355 355.14925385 -31.875 349.3984375 C-31.24722656 348.27824219 -30.61945313 347.15804687 -29.97265625 346.00390625 C-14.17940492 316.31812312 -11.43563048 280.74119731 -21.02978516 248.66503906 C-32.79777312 211.88582768 -57.64144724 183.00300664 -91.69824219 165.24121094 C-143.77617724 139.30509032 -201.46319735 157.60698969 -238.875 199.3984375 Z " fill="#000000" transform="translate(1256.875,155.6015625)"/>
<path d="M0 0 C0.78095032 -0.00705963 1.56190063 -0.01411926 2.36651611 -0.02139282 C34.77924708 -0.24796241 34.77924708 -0.24796241 48.57421875 3.203125 C49.38455566 3.39648438 50.19489258 3.58984375 51.02978516 3.7890625 C82.49615433 11.46176512 111.58476183 27.21366808 134.57421875 50.203125 C134.58880127 49.13876221 134.60338379 48.07439941 134.6184082 46.9777832 C134.67651655 43.01716031 134.7537482 39.05709852 134.83666992 35.09692383 C134.86986044 33.38510262 134.89791064 31.67317352 134.9206543 29.96118164 C134.95430907 27.49579021 135.00662849 25.03138219 135.0625 22.56640625 C135.06888992 21.80475662 135.07527985 21.04310699 135.0818634 20.25837708 C135.20581126 15.74753895 135.67975445 12.7222824 138.57421875 9.203125 C142.88229129 5.59936547 147.02616728 5.76445085 152.3828125 5.8046875 C153.22715347 5.80181732 154.07149445 5.79894714 154.94142151 5.79598999 C156.72242913 5.79395377 158.50345933 5.79945271 160.28442383 5.81201172 C162.99937386 5.82805206 165.71283081 5.81215883 168.42773438 5.79296875 C170.16276368 5.79495165 171.89779206 5.7987963 173.6328125 5.8046875 C174.43923691 5.79861481 175.24566132 5.79254211 176.07652283 5.7862854 C180.9104132 5.84610029 184.58002695 6.2020094 188.57421875 9.203125 C192.14398739 16.31666989 191.99620791 23.02900607 191.95516968 30.87391663 C191.95862977 32.26176888 191.9633967 33.64961838 191.96935141 35.03746217 C191.98184269 38.83687725 191.97569966 42.63606544 191.96639276 46.43548119 C191.95959496 50.53845938 191.97008707 54.64139902 191.97833252 58.74436951 C191.9916639 66.7761629 191.98879487 74.80787214 191.9800946 82.83966882 C191.97331659 89.36736209 191.97240184 95.8950318 191.97566605 102.42272758 C191.97612575 103.35214398 191.97658544 104.28156038 191.97705907 105.23914091 C191.97801826 107.12728053 191.9789909 109.01542013 191.97997685 110.90355974 C191.98852888 128.60323223 191.9786993 146.30285809 191.96257575 164.00252294 C191.94917053 179.18831012 191.95150271 194.37402851 191.96533203 209.55981445 C191.98138733 227.19815292 191.98770725 244.83645053 191.97849524 262.47479528 C191.9775396 264.35564291 191.97659649 266.23649054 191.97566605 268.11733818 C191.97520322 269.04273434 191.97474039 269.96813051 191.97426354 270.92156898 C191.97167367 277.44162484 191.97604455 283.96165477 191.98310471 290.48170662 C191.99151924 298.42709437 191.98924044 306.37239322 191.97326247 314.31777079 C191.96537948 318.37130173 191.96228866 322.42468443 191.97220993 326.47821426 C191.98115664 330.18969668 191.97622454 333.9008936 191.96027727 337.61235016 C191.95534481 339.5891291 191.96512616 341.5659279 191.97544897 343.54268605 C191.92502028 351.14526773 191.65086501 356.7125055 186.453125 362.60961914 C182.42170978 364.84105123 179.04950068 364.7603823 174.51171875 364.69921875 C173.20835571 364.7014016 173.20835571 364.7014016 171.87866211 364.70362854 C170.04635252 364.70197271 168.21402856 364.69044688 166.38183594 364.66967773 C163.58338103 364.64071981 160.78682166 364.64907575 157.98828125 364.66210938 C156.20441791 364.65587146 154.42056053 364.6474801 152.63671875 364.63671875 C151.80325928 364.63965439 150.9697998 364.64259003 150.11108398 364.64561462 C145.47792278 364.57068568 142.26120937 364.30659673 138.57421875 361.203125 C135.12245205 357.03289103 135.10491207 352.8216019 135.0625 347.62109375 C135.0445488 346.80691483 135.0265976 345.9927359 135.00810242 345.15388489 C134.95413665 342.56618348 134.9201485 339.97866507 134.88671875 337.390625 C134.85353347 335.63083399 134.81904269 333.87106708 134.78320312 332.11132812 C134.69841833 327.80872607 134.6315421 323.50617699 134.57421875 319.203125 C133.70518921 320.09173218 133.70518921 320.09173218 132.81860352 320.99829102 C100.73173564 353.50243058 55.84741651 370.2563565 10.57421875 370.578125 C-41.48246779 370.16642516 -87.37576852 348.6636693 -123.82495117 312.17700195 C-134.27057587 301.41767047 -143.0272325 289.22583821 -150.42578125 276.203125 C-151.07933594 275.08164062 -151.73289062 273.96015625 -152.40625 272.8046875 C-175.55701295 232.06964887 -180.88668626 181.33202938 -168.60351562 136.31420898 C-159.98512569 106.63726756 -145.31413622 80.91687079 -124.42578125 58.203125 C-123.92498047 57.6570459 -123.42417969 57.1109668 -122.90820312 56.54833984 C-92.27152207 23.57380222 -45.42904677 0.27401647 0 0 Z M-83.11621094 96.11987305 C-105.36125577 121.50287674 -118.27035131 156.25735696 -116.578125 190.08496094 C-114.16503277 223.63622408 -101.37855425 253.57212118 -78.42578125 278.203125 C-77.74 278.95851563 -77.05421875 279.71390625 -76.34765625 280.4921875 C-56.27002025 301.6665011 -25.34423926 316.5887619 3.91015625 317.40625 C37.43452635 317.84191974 65.77453251 307.75449241 91.57421875 286.203125 C92.53134766 285.43162109 92.53134766 285.43162109 93.5078125 284.64453125 C98.05281458 280.90932909 101.85143073 276.74987012 105.57421875 272.203125 C106.34894531 271.26597656 107.12367188 270.32882812 107.921875 269.36328125 C131.01334684 240.79446537 141.56779729 205.03372885 137.94921875 168.515625 C134.33565772 140.41870127 121.64223244 114.89798664 102.57421875 94.203125 C101.71183594 93.25824219 100.84945312 92.31335938 99.9609375 91.33984375 C80.85590975 71.32909616 55.7265653 58.8677589 28.57421875 54.203125 C27.836875 54.07164062 27.09953125 53.94015625 26.33984375 53.8046875 C-14.59534408 47.93413731 -55.70372753 66.11609442 -83.11621094 96.11987305 Z " fill="#000000" transform="translate(3689.42578125,255.796875)"/>
<path d="M0 0 C0.78095032 -0.00705963 1.56190063 -0.01411926 2.36651611 -0.02139282 C34.77924708 -0.24796241 34.77924708 -0.24796241 48.57421875 3.203125 C49.38455566 3.39648438 50.19489258 3.58984375 51.02978516 3.7890625 C82.49615433 11.46176512 111.58476183 27.21366808 134.57421875 50.203125 C134.58880127 49.13876221 134.60338379 48.07439941 134.6184082 46.9777832 C134.67651655 43.01716031 134.7537482 39.05709852 134.83666992 35.09692383 C134.86986044 33.38510262 134.89791064 31.67317352 134.9206543 29.96118164 C134.95430907 27.49579021 135.00662849 25.03138219 135.0625 22.56640625 C135.06888992 21.80475662 135.07527985 21.04310699 135.0818634 20.25837708 C135.20581126 15.74753895 135.67975445 12.7222824 138.57421875 9.203125 C142.88229129 5.59936547 147.02616728 5.76445085 152.3828125 5.8046875 C153.22715347 5.80181732 154.07149445 5.79894714 154.94142151 5.79598999 C156.72242913 5.79395377 158.50345933 5.79945271 160.28442383 5.81201172 C162.99937386 5.82805206 165.71283081 5.81215883 168.42773438 5.79296875 C170.16276368 5.79495165 171.89779206 5.7987963 173.6328125 5.8046875 C174.43923691 5.79861481 175.24566132 5.79254211 176.07652283 5.7862854 C180.95840823 5.84669418 184.36111704 6.47348722 188.57421875 9.203125 C191.58060797 13.71270884 191.69910317 17.71814672 191.70564651 23.04624748 C191.70948766 24.22230675 191.7133288 25.39836601 191.71728635 26.61006343 C191.71641987 27.89808302 191.71555338 29.1861026 191.71466064 30.51315308 C191.71724529 31.89841327 191.72025873 33.28367271 191.72366405 34.66893113 C191.73172535 38.47505264 191.73352313 42.28115529 191.73426151 46.08728433 C191.73611353 50.19234996 191.74366152 54.29740584 191.75039673 58.40246582 C191.7639734 67.37755878 191.77000345 76.35264726 191.77440739 85.32774878 C191.77717038 90.93119877 191.78140779 96.53464703 191.78591156 102.13809586 C191.79810231 117.65138834 191.80840269 133.16467944 191.81178665 148.67797661 C191.81200622 149.67065745 191.81222578 150.66333829 191.812452 151.68610037 C191.81267028 152.68115418 191.81288856 153.67620799 191.81311345 154.70141494 C191.81355692 156.71777272 191.81400348 158.7341305 191.81445312 160.75048828 C191.81467455 161.75067116 191.81489598 162.75085405 191.81512412 163.7813455 C191.81907367 179.99436777 191.83653333 196.20734514 191.85981265 212.42035006 C191.88351827 229.06449659 191.89598811 245.70862058 191.89715457 262.35278428 C191.89807166 271.69855135 191.90383278 281.04425988 191.92197418 290.39001083 C191.93736436 298.34643915 191.94250196 306.30279083 191.93423608 314.25923119 C191.93032602 318.31882508 191.93127655 322.37826456 191.94529343 326.43783951 C191.95801068 330.15497953 191.95685414 333.87184879 191.94470271 337.58898832 C191.94181389 339.5689029 191.95369784 341.54882207 191.96612477 343.52869976 C191.92366495 351.13991388 191.65685178 356.7057132 186.453125 362.60961914 C182.42170978 364.84105123 179.04950068 364.7603823 174.51171875 364.69921875 C173.20835571 364.7014016 173.20835571 364.7014016 171.87866211 364.70362854 C170.04635252 364.70197271 168.21402856 364.69044688 166.38183594 364.66967773 C163.58338103 364.64071981 160.78682166 364.64907575 157.98828125 364.66210938 C156.20441791 364.65587146 154.42056053 364.6474801 152.63671875 364.63671875 C151.80325928 364.63965439 150.9697998 364.64259003 150.11108398 364.64561462 C145.49826655 364.57101468 142.19845288 364.36056378 138.57421875 361.203125 C135.38440302 356.44005174 135.10928078 352.28045719 135.0625 346.7421875 C135.0355732 345.5563356 135.0355732 345.5563356 135.00810242 344.3465271 C134.95425169 341.84044609 134.92018594 339.33455273 134.88671875 336.828125 C134.85352327 335.12106778 134.81903156 333.41403524 134.78320312 331.70703125 C134.69854023 327.53919847 134.63160968 323.3714189 134.57421875 319.203125 C133.70518921 320.09173218 133.70518921 320.09173218 132.81860352 320.99829102 C101.61631497 352.60634779 57.78670132 369.73011563 13.68725586 370.43579102 C-38.53629401 370.7265817 -84.83365658 350.37653206 -121.92578125 314.078125 C-133.17874037 302.81359322 -142.56809684 290.03399563 -150.42578125 276.203125 C-151.07933594 275.08164062 -151.73289062 273.96015625 -152.40625 272.8046875 C-175.49620474 232.17664425 -180.67722897 181.94876401 -168.73828125 137.015625 C-159.81922452 105.38172658 -143.74206797 79.15975417 -121.42578125 55.203125 C-120.70261719 54.41421875 -119.97945312 53.6253125 -119.234375 52.8125 C-89.54259515 21.66376311 -43.18904397 0.26050534 0 0 Z M-81.4375 94.3671875 C-104.99200884 120.83315494 -117.9023017 155.76663411 -116.42578125 191.203125 C-114.33679834 221.28447896 -103.22768021 249.36675037 -83.42578125 272.203125 C-82.71808594 273.03199219 -82.01039063 273.86085938 -81.28125 274.71484375 C-63.95772747 294.5261576 -40.37319604 309.66595956 -14.42578125 315.203125 C-13.46929688 315.42484375 -12.5128125 315.6465625 -11.52734375 315.875 C20.36131584 322.06859793 52.3310673 313.62543756 79.05859375 295.98046875 C83.3975677 292.91488933 87.51211359 289.6245404 91.57421875 286.203125 C92.33605469 285.57664062 93.09789063 284.95015625 93.8828125 284.3046875 C99.90200485 279.19306835 104.75548137 273.44066476 109.57421875 267.203125 C110.54294922 266.01009766 110.54294922 266.01009766 111.53125 264.79296875 C125.66568018 246.62835481 133.92852475 224.7574558 137.57421875 202.203125 C137.70570313 201.43355469 137.8371875 200.66398438 137.97265625 199.87109375 C142.71930872 166.32380672 131.56721433 131.96751556 111.91259766 104.95068359 C108.15306923 100.04176268 103.8877807 95.621576 99.57421875 91.203125 C98.93226563 90.49929688 98.2903125 89.79546875 97.62890625 89.0703125 C79.75888897 69.96254511 54.01189688 58.57318765 28.57421875 54.203125 C27.836875 54.07164062 27.09953125 53.94015625 26.33984375 53.8046875 C-13.52426803 48.08774124 -54.40514441 65.24437759 -81.4375 94.3671875 Z " fill="#000000" transform="translate(2141.42578125,255.796875)"/>
<path d="M0 0 C0.77633789 0.18191895 1.55267578 0.36383789 2.35253906 0.55126953 C23.43458176 5.67302502 44.01455672 16.02143131 61.375 28.9375 C62.26469482 29.59927246 62.26469482 29.59927246 63.17236328 30.27441406 C69.45790915 35.11684116 75.19652648 40.59989615 81 46 C81.01981934 45.03698975 81.03963867 44.07397949 81.06005859 43.08178711 C81.13657179 39.48274151 81.22521561 35.88407631 81.31738281 32.28540039 C81.35548484 30.73274284 81.39036928 29.18000267 81.421875 27.62719727 C81.46793685 25.38528053 81.52585878 23.14392355 81.5859375 20.90234375 C81.59748871 20.21663803 81.60903992 19.53093231 81.62094116 18.82444763 C81.7788513 13.57799726 82.01047433 7.92534743 85.9375 4.125 C90.35007655 1.71814006 94.50310889 1.8229611 99.39453125 1.796875 C100.63199348 1.78832489 100.63199348 1.78832489 101.89445496 1.77960205 C103.64031698 1.77015877 105.38619677 1.76362074 107.13208008 1.75976562 C109.79214918 1.75007414 112.45144078 1.71905088 115.11132812 1.6875 C116.80989126 1.68096811 118.5084599 1.67571837 120.20703125 1.671875 C120.99785599 1.6595282 121.78868073 1.6471814 122.60346985 1.63446045 C127.44823354 1.65382975 130.87097605 2.19509155 135 5 C137.73218332 8.73054538 138.37574905 11.35136917 138.38031673 15.93962002 C138.38875668 17.13719635 138.39719662 18.33477269 138.40589231 19.56863922 C138.39988227 20.88068661 138.39387222 22.192734 138.38768005 23.54454041 C138.39185301 24.95526557 138.39733031 26.36598737 138.40399987 27.77670294 C138.41847836 31.65322754 138.41420231 35.52953997 138.40683305 39.40607631 C138.40210962 43.58680343 138.41460391 47.7674841 138.42485046 51.94819641 C138.44205993 60.13847741 138.44287404 68.32868176 138.43763756 76.51897614 C138.43359867 83.17499249 138.43503607 89.83098616 138.44038582 96.48700142 C138.44113424 97.43376518 138.44188266 98.38052893 138.44265376 99.3559825 C138.44418522 101.27923445 138.44572356 103.20248639 138.44726873 105.12573833 C138.46100151 123.16777313 138.45555059 141.20976458 138.44408352 159.2517984 C138.43414998 175.76297881 138.44709252 192.27404718 138.47101771 208.7852103 C138.49539132 225.73333523 138.50502089 242.68140793 138.49836498 259.62955004 C138.49486894 269.14687995 138.49713024 278.66412367 138.51461601 288.18144035 C138.52931625 296.28321895 138.53000201 304.38485067 138.5125451 312.48662632 C138.50401476 316.62106543 138.5019349 320.75524189 138.51719666 324.88966751 C138.53099353 328.67406932 138.5263457 332.45798225 138.50695742 336.24235541 C138.50139209 338.26078341 138.51551055 340.27923598 138.53031152 342.29761738 C138.4409471 353.22594282 138.4409471 353.22594282 134 358 C130.35523225 360.91213261 125.53014193 360.34246754 121.0703125 360.37109375 C120.20236053 360.38012222 119.33440857 360.3891507 118.44015503 360.39845276 C116.60613446 360.41294211 114.77206236 360.42183873 112.93798828 360.42553711 C110.14136084 360.43743042 107.34694305 360.4866238 104.55078125 360.53710938 C102.76563573 360.54657467 100.9804767 360.5538092 99.1953125 360.55859375 C98.36387726 360.57812607 97.53244202 360.59765839 96.67581177 360.61778259 C92.6486217 360.58670041 89.82261348 360.31030122 86.55029297 357.84008789 C82.00181773 352.77476026 81.69594298 347.77463755 81.5859375 341.1953125 C81.55688828 340.1093428 81.55688828 340.1093428 81.5272522 339.00143433 C81.46790114 336.70940602 81.42125122 334.41732626 81.375 332.125 C81.33677913 330.56247919 81.29772506 328.99997852 81.2578125 327.4375 C81.16223692 323.62516535 81.07804394 319.8127322 81 316 C80.29004883 316.65734131 79.58009766 317.31468262 78.84863281 317.99194336 C73.65611773 322.76284023 68.48587263 327.44571595 62.75 331.5625 C62.1214209 332.01665283 61.4928418 332.47080566 60.84521484 332.9387207 C23.01457822 359.87387042 -24.38560619 371.97419179 -70.54003906 364.4453125 C-87.07888191 361.45138144 -102.69188137 356.93789979 -118 350 C-119.04824951 349.53255371 -119.04824951 349.53255371 -120.11767578 349.05566406 C-135.73279752 342.00030186 -150.15761545 332.32003501 -163 321 C-164.45792969 319.72382812 -164.45792969 319.72382812 -165.9453125 318.421875 C-199.92548118 288.24151019 -223.8080701 244.24834317 -227.18579102 198.48266602 C-230.13536171 148.33127614 -217.62378713 100.75945329 -184.484375 62.0625 C-183.00735256 60.41466544 -181.51617713 58.77935054 -180.0078125 57.16015625 C-178.12512006 55.13461361 -176.34262939 53.05295609 -174.5625 50.9375 C-132.87215426 3.58783131 -60.13006152 -14.37687326 0 0 Z M-130 86 C-130.66386719 86.59941406 -131.32773438 87.19882812 -132.01171875 87.81640625 C-154.69013977 109.11480165 -168.16632984 142.1969296 -169.34375 172.95703125 C-169.95748916 202.41057165 -163.44704993 231.69745644 -146 256 C-145.30777344 256.98742187 -144.61554688 257.97484375 -143.90234375 258.9921875 C-132.96593856 273.92704467 -119.85069666 286.42428398 -104 296 C-103.07453369 296.56388428 -103.07453369 296.56388428 -102.13037109 297.13916016 C-76.66699752 312.37117023 -45.00195737 317.55449927 -16.06689453 310.53466797 C3.32030254 305.51955321 20.72408465 297.01591692 36 284 C36.87914062 283.26007813 37.75828125 282.52015625 38.6640625 281.7578125 C64.32890465 259.4301944 81.2212804 227.88374193 85 194 C85.27311369 189.57837783 85.33463847 185.17929754 85.3125 180.75 C85.30758545 179.57268311 85.3026709 178.39536621 85.29760742 177.18237305 C85.17232146 167.8103407 84.28640988 159.08057908 82 150 C81.68289063 148.73027344 81.36578125 147.46054687 81.0390625 146.15234375 C71.79397129 112.18974036 48.99781702 82.89035051 18.578125 65.421875 C-31.8892183 37.34080367 -88.45290268 46.85937851 -130 86 Z " fill="#000000" transform="translate(1584,260)"/>
<path d="M0 0 C0.5377002 0.43570313 1.07540039 0.87140625 1.62939453 1.3203125 C6.12087019 5.15149045 8.45412182 8.88297453 9.1875 14.75 C8.24489888 22.29080893 1.31430496 28.86523399 -3.1875 34.75 C-3.89068359 35.67425781 -4.59386719 36.59851563 -5.31835938 37.55078125 C-15.48034449 50.86517225 -15.48034449 50.86517225 -18.25 52.25 C-22.08463252 52.49991495 -25.8009874 52.34428896 -28.94140625 49.97265625 C-30.0453257 48.7968022 -31.13231317 47.6049459 -32.20703125 46.40234375 C-51.68785112 25.87857367 -83.51599418 14.13418179 -111.3359375 13.046875 C-145.26368652 12.42413054 -175.93772324 25.4410517 -200.56298828 48.59057617 C-225.75780334 72.98048197 -241.87757374 106.61039707 -242.60400391 141.84741211 C-242.83592881 179.43273111 -228.59053807 212.57509685 -202.25 239.25 C-177.98768194 263.54858461 -146.71671524 275.51187211 -112.70703125 275.5690918 C-97.11838508 275.41912654 -82.4522544 272.88226526 -68.25 266.25 C-67.61562012 265.95528809 -66.98124023 265.66057617 -66.32763672 265.35693359 C-53.1450242 259.11881712 -42.01550887 250.69408429 -30.83203125 241.41796875 C-21.88400337 234.21645075 -21.88400337 234.21645075 -15.28515625 234.4453125 C-8.45604811 237.14549729 -3.90657166 245.68887921 0.37988281 251.42236328 C1.30330016 252.65413489 2.23247598 253.88160794 3.16699219 255.10498047 C4.56300796 256.93478916 5.9396329 258.77778348 7.3125 260.625 C7.74199951 261.1830835 8.17149902 261.74116699 8.61401367 262.31616211 C11.48741672 266.2467441 12.55668098 269.394281 12.75 274.25 C9.94288952 286.62780998 -6.44895161 294.82936593 -16.25 301.25 C-57.99620856 327.35124477 -107.32812868 337.19671606 -155.625 326.0625 C-185.27923099 318.78672054 -212.23201631 305.43669815 -235.25 285.25 C-236.52230469 284.14205078 -236.52230469 284.14205078 -237.8203125 283.01171875 C-240.32931052 280.79044986 -242.79802617 278.53397562 -245.25 276.25 C-245.98863281 275.56550781 -246.72726563 274.88101562 -247.48828125 274.17578125 C-277.11655534 245.70527276 -299.33808606 201.4118993 -300.41113281 160.06323242 C-300.43099069 158.57737796 -300.44472922 157.09143218 -300.453125 155.60546875 C-300.45882507 154.79620438 -300.46452515 153.98694 -300.47039795 153.15315247 C-300.47979274 151.44464398 -300.48635979 149.73611782 -300.49023438 148.02758789 C-300.49983132 145.48223797 -300.53086164 142.93773551 -300.5625 140.39257812 C-300.66629834 124.57794768 -298.66786376 109.35010302 -294.0625 94.1875 C-293.76061768 93.17929199 -293.45873535 92.17108398 -293.14770508 91.13232422 C-290.26197317 81.795306 -286.65721686 72.96601441 -282.25 64.25 C-281.68756592 63.13334961 -281.68756592 63.13334961 -281.11376953 61.99414062 C-268.7190746 37.77260435 -250.68883145 15.97878515 -229.25 -0.75 C-228.42435547 -1.3982373 -228.42435547 -1.3982373 -227.58203125 -2.05957031 C-161.53499797 -53.52430917 -65.10159064 -53.40920633 0 0 Z " fill="#000000" transform="translate(2688.25,296.75)"/>
<path d="M0 0 C3.28137944 3.31240903 2.77377968 7.02815786 2.76586914 11.43432617 C2.76601517 12.11751419 2.76616119 12.80070221 2.76631165 13.5045929 C2.76561544 15.76090682 2.75783671 18.01713801 2.75 20.2734375 C2.74813478 21.83856664 2.74671137 23.40369636 2.74571228 24.96882629 C2.74189527 29.08700168 2.73207193 33.20514177 2.7210083 37.32330322 C2.71077666 41.5260775 2.7062109 45.72885748 2.70117188 49.93164062 C2.69044894 58.17709953 2.67338229 66.42252975 2.65234375 74.66796875 C3.2175322 74.65686569 3.78272064 74.64576263 4.36503601 74.63432312 C10.25353169 74.52360862 16.14173122 74.44825191 22.03100586 74.39331055 C24.22806815 74.36818366 26.42504699 74.33407629 28.62182617 74.29077148 C31.7819478 74.23004113 34.94096332 74.20174042 38.1015625 74.1796875 C39.57214363 74.14097786 39.57214363 74.14097786 41.07243347 74.10148621 C45.74975213 74.0995674 47.92433716 74.117186 51.74926758 77.01098633 C55.85727418 82.74638541 54.87470293 89.41885763 54.89257812 96.18164062 C54.90224878 98.39622053 54.93326641 100.60985792 54.96484375 102.82421875 C54.97137804 104.24608827 54.97662684 105.6679644 54.98046875 107.08984375 C54.9944873 109.01715332 54.9944873 109.01715332 55.00878906 110.98339844 C54.58923287 115.32034506 53.7440728 117.85655732 51.65234375 121.66796875 C48.75106152 123.55184818 46.4891949 123.91424319 43.06738281 123.89501953 C42.1667511 123.89486847 41.26611938 123.89471741 40.3381958 123.89456177 C39.37452087 123.8842392 38.41084595 123.87391663 37.41796875 123.86328125 C35.9282254 123.85903641 35.9282254 123.85903641 34.40838623 123.85470581 C31.23958231 123.84352018 28.0710621 123.81841837 24.90234375 123.79296875 C22.75260825 123.78293687 20.60286832 123.77381138 18.453125 123.765625 C13.18610129 123.74358616 7.91924279 123.71012459 2.65234375 123.66796875 C2.7342883 154.74338778 2.82631682 185.81875707 2.93239536 216.89410233 C2.94491402 220.56400417 2.95734683 224.23390629 2.96972656 227.90380859 C2.97219256 228.63441073 2.97465855 229.36501287 2.97719927 230.11775446 C3.01690772 241.94284767 3.04966353 253.76795041 3.07984357 265.59307134 C3.11097305 277.72947178 3.14958886 289.86583179 3.19513381 302.00218678 C3.22299524 309.48912841 3.24503842 316.97604053 3.25960626 324.46302003 C3.27140857 330.20697305 3.2936338 335.95084951 3.31972694 341.69475365 C3.32879469 344.04894132 3.33449108 346.40314478 3.33655739 348.75734901 C3.33988552 351.97327223 3.35537836 355.1889185 3.37387085 358.40478516 C3.37096875 359.79975456 3.37096875 359.79975456 3.36800802 361.22290516 C3.42160624 367.46444439 3.51504533 373.96072408 7.52734375 379.04296875 C11.78881864 382.30174367 15.11779832 382.93134706 20.46484375 383.41796875 C26.76820255 384.2321526 30.67201861 385.63443043 34.65234375 390.66796875 C36.21541202 393.7941053 35.83630853 397.12957498 35.85546875 400.5625 C35.86116882 401.34686935 35.8668689 402.13123871 35.8727417 402.93937683 C35.88219515 404.60125376 35.88872705 406.26314947 35.89257812 407.92504883 C35.90226604 410.46013413 35.93327779 412.99440254 35.96484375 415.52929688 C35.97137572 417.14452644 35.97662543 418.7597618 35.98046875 420.375 C35.99281555 421.13037552 36.00516235 421.88575104 36.0178833 422.66401672 C35.99883221 427.19597166 35.43013171 430.0555383 32.65234375 433.66796875 C28.22211276 437.46649701 23.5223968 437.16988664 17.96484375 437.10546875 C17.03583252 437.09644531 16.10682129 437.08742188 15.1496582 437.078125 C-3.41424675 436.62245257 -21.70528353 431.27224 -35.23828125 418.01171875 C-52.09924167 399.27731829 -52.80127888 378.39219298 -52.68823242 354.46508789 C-52.68738491 351.94074005 -52.68786371 349.41639148 -52.68955994 346.89204407 C-52.69023968 341.48526026 -52.68181659 336.07861661 -52.66484642 330.67186165 C-52.64032751 322.85490858 -52.63263807 315.03800786 -52.62888245 307.22102051 C-52.62233803 294.53444269 -52.6024318 281.84792317 -52.57397461 269.16137695 C-52.54638174 256.84725229 -52.52517385 244.53314353 -52.51245117 232.21899414 C-52.511663 231.45826413 -52.51087483 230.69753411 -52.51006278 229.91375167 C-52.50614729 226.09688904 -52.50235625 222.28002631 -52.49862707 218.4631635 C-52.46759382 186.86472287 -52.41458815 155.26635472 -52.34765625 123.66796875 C-53.53319092 123.6836792 -54.71872559 123.69938965 -55.94018555 123.71557617 C-60.34766825 123.7699644 -64.7551214 123.80435121 -69.1628418 123.83276367 C-71.06881706 123.84783003 -72.97475777 123.86828699 -74.88061523 123.89428711 C-77.62362201 123.93076517 -80.36616953 123.94771667 -83.109375 123.9609375 C-83.95851974 123.97642136 -84.80766449 123.99190521 -85.68254089 124.00785828 C-90.3947951 124.00919223 -93.53070908 123.75729716 -97.34765625 120.66796875 C-99.91933024 115.52462076 -98.66108798 107.37379458 -98.69775391 101.64697266 C-98.71432531 99.74775957 -98.74163102 97.84860914 -98.77978516 95.94970703 C-98.83450603 93.21223591 -98.85641839 90.47622533 -98.87109375 87.73828125 C-98.89376312 86.89024933 -98.9164325 86.04221741 -98.93978882 85.16848755 C-98.92572528 81.25012813 -98.83269513 79.30309951 -96.40600586 76.12548828 C-92.14632011 74.09544726 -88.55068523 74.16688961 -83.890625 74.27734375 C-82.9876619 74.28300354 -82.08469879 74.28866333 -81.15437317 74.29449463 C-78.28075322 74.3168198 -75.40839697 74.36700857 -72.53515625 74.41796875 C-70.58270035 74.43803876 -68.63022483 74.45628865 -66.67773438 74.47265625 C-61.90055747 74.51667193 -57.12432085 74.58567249 -52.34765625 74.66796875 C-52.36431084 73.46313591 -52.36431084 73.46313591 -52.38130188 72.23396301 C-52.48157238 64.65676034 -52.55765517 57.07988024 -52.60671711 49.50218678 C-52.63278878 45.60655684 -52.66814052 41.71147602 -52.72485352 37.81616211 C-52.77926289 34.05544849 -52.80909508 30.29526231 -52.82204247 26.53418541 C-52.8312666 25.10082383 -52.84927996 23.66749047 -52.87630653 22.23435402 C-52.91270384 20.22398769 -52.91469952 18.21308828 -52.9152832 16.20239258 C-52.93193779 14.48697014 -52.93193779 14.48697014 -52.94892883 12.7368927 C-52.16089378 8.71472418 -50.46213088 7.23726203 -47.34765625 4.66796875 C-45.11865234 3.76489258 -45.11865234 3.76489258 -42.87109375 3.375 C-41.62610107 3.14345215 -41.62610107 3.14345215 -40.35595703 2.90722656 C-39.48696777 2.76639648 -38.61797852 2.62556641 -37.72265625 2.48046875 C-36.82401855 2.32030273 -35.92538086 2.16013672 -34.99951172 1.99511719 C-33.23079958 1.68086437 -31.46079277 1.37379449 -29.68945312 1.07470703 C-26.93369766 0.59606977 -24.20742457 0.00340568 -21.47265625 -0.58203125 C-5.86481813 -3.32762559 -5.86481813 -3.32762559 0 0 Z " fill="#000000" transform="translate(3419.34765625,187.33203125)"/>
<path d="M0 0 C3.28137944 3.31240903 2.77377968 7.02815786 2.76586914 11.43432617 C2.76601517 12.11751419 2.76616119 12.80070221 2.76631165 13.5045929 C2.76561544 15.76090682 2.75783671 18.01713801 2.75 20.2734375 C2.74813478 21.83856664 2.74671137 23.40369636 2.74571228 24.96882629 C2.74189527 29.08700168 2.73207193 33.20514177 2.7210083 37.32330322 C2.71077666 41.5260775 2.7062109 45.72885748 2.70117188 49.93164062 C2.69044894 58.17709953 2.67338229 66.42252975 2.65234375 74.66796875 C3.2175322 74.65686569 3.78272064 74.64576263 4.36503601 74.63432312 C10.25353169 74.52360862 16.14173122 74.44825191 22.03100586 74.39331055 C24.22806815 74.36818366 26.42504699 74.33407629 28.62182617 74.29077148 C31.7819478 74.23004113 34.94096332 74.20174042 38.1015625 74.1796875 C39.57214363 74.14097786 39.57214363 74.14097786 41.07243347 74.10148621 C45.74975213 74.0995674 47.92433716 74.117186 51.74926758 77.01098633 C54.79525705 81.26364873 54.8243157 84.92893269 54.85546875 89.96875 C54.86116882 90.6827446 54.8668689 91.3967392 54.8727417 92.13237 C54.88218026 93.64283777 54.88872114 95.15332602 54.89257812 96.66381836 C54.90226504 98.96179661 54.93328981 101.25887289 54.96484375 103.55664062 C54.97137631 105.02733846 54.97662579 106.49804267 54.98046875 107.96875 C54.99281555 108.65020584 55.00516235 109.33166168 55.0178833 110.0337677 C54.99665121 114.63625109 54.17554444 117.81086256 51.65234375 121.66796875 C48.72672362 123.51670011 46.49705821 123.91428737 43.06738281 123.89501953 C42.1667511 123.89486847 41.26611938 123.89471741 40.3381958 123.89456177 C39.37452087 123.8842392 38.41084595 123.87391663 37.41796875 123.86328125 C35.9282254 123.85903641 35.9282254 123.85903641 34.40838623 123.85470581 C31.23958231 123.84352018 28.0710621 123.81841837 24.90234375 123.79296875 C22.75260825 123.78293687 20.60286832 123.77381138 18.453125 123.765625 C13.18610129 123.74358616 7.91924279 123.71012459 2.65234375 123.66796875 C2.7342883 154.74338778 2.82631682 185.81875707 2.93239536 216.89410233 C2.94491402 220.56400417 2.95734683 224.23390629 2.96972656 227.90380859 C2.97219256 228.63441073 2.97465855 229.36501287 2.97719927 230.11775446 C3.01690772 241.94284767 3.04966353 253.76795041 3.07984357 265.59307134 C3.11097305 277.72947178 3.14958886 289.86583179 3.19513381 302.00218678 C3.22299524 309.48912841 3.24503842 316.97604053 3.25960626 324.46302003 C3.27140857 330.20697305 3.2936338 335.95084951 3.31972694 341.69475365 C3.32879469 344.04894132 3.33449108 346.40314478 3.33655739 348.75734901 C3.33988552 351.97327223 3.35537836 355.1889185 3.37387085 358.40478516 C3.37096875 359.79975456 3.37096875 359.79975456 3.36800802 361.22290516 C3.42160624 367.46444439 3.51504533 373.96072408 7.52734375 379.04296875 C11.78881864 382.30174367 15.11779832 382.93134706 20.46484375 383.41796875 C26.76820255 384.2321526 30.67201861 385.63443043 34.65234375 390.66796875 C36.21541202 393.7941053 35.83630853 397.12957498 35.85546875 400.5625 C35.86116882 401.34686935 35.8668689 402.13123871 35.8727417 402.93937683 C35.88219515 404.60125376 35.88872705 406.26314947 35.89257812 407.92504883 C35.90226604 410.46013413 35.93327779 412.99440254 35.96484375 415.52929688 C35.97137572 417.14452644 35.97662543 418.7597618 35.98046875 420.375 C35.99281555 421.13037552 36.00516235 421.88575104 36.0178833 422.66401672 C35.99883221 427.19597166 35.43013171 430.0555383 32.65234375 433.66796875 C28.22211276 437.46649701 23.5223968 437.16988664 17.96484375 437.10546875 C17.03583252 437.09644531 16.10682129 437.08742188 15.1496582 437.078125 C-3.41424675 436.62245257 -21.70528353 431.27224 -35.23828125 418.01171875 C-52.09924167 399.27731829 -52.80127888 378.39219298 -52.68823242 354.46508789 C-52.68738491 351.94074005 -52.68786371 349.41639148 -52.68955994 346.89204407 C-52.69023968 341.48526026 -52.68181659 336.07861661 -52.66484642 330.67186165 C-52.64032751 322.85490858 -52.63263807 315.03800786 -52.62888245 307.22102051 C-52.62233803 294.53444269 -52.6024318 281.84792317 -52.57397461 269.16137695 C-52.54638174 256.84725229 -52.52517385 244.53314353 -52.51245117 232.21899414 C-52.511663 231.45826413 -52.51087483 230.69753411 -52.51006278 229.91375167 C-52.50614729 226.09688904 -52.50235625 222.28002631 -52.49862707 218.4631635 C-52.46759382 186.86472287 -52.41458815 155.26635472 -52.34765625 123.66796875 C-53.53319092 123.6836792 -54.71872559 123.69938965 -55.94018555 123.71557617 C-60.34766825 123.7699644 -64.7551214 123.80435121 -69.1628418 123.83276367 C-71.06881706 123.84783003 -72.97475777 123.86828699 -74.88061523 123.89428711 C-77.62362201 123.93076517 -80.36616953 123.94771667 -83.109375 123.9609375 C-83.95851974 123.97642136 -84.80766449 123.99190521 -85.68254089 124.00785828 C-90.3947951 124.00919223 -93.53070908 123.75729716 -97.34765625 120.66796875 C-99.91933024 115.52462076 -98.66108798 107.37379458 -98.69775391 101.64697266 C-98.71432531 99.74775957 -98.74163102 97.84860914 -98.77978516 95.94970703 C-98.83450603 93.21223591 -98.85641839 90.47622533 -98.87109375 87.73828125 C-98.89376312 86.89024933 -98.9164325 86.04221741 -98.93978882 85.16848755 C-98.92572528 81.25012813 -98.83269513 79.30309951 -96.40600586 76.12548828 C-92.14632011 74.09544726 -88.55068523 74.16688961 -83.890625 74.27734375 C-82.9876619 74.28300354 -82.08469879 74.28866333 -81.15437317 74.29449463 C-78.28075322 74.3168198 -75.40839697 74.36700857 -72.53515625 74.41796875 C-70.58270035 74.43803876 -68.63022483 74.45628865 -66.67773438 74.47265625 C-61.90055747 74.51667193 -57.12432085 74.58567249 -52.34765625 74.66796875 C-52.36431084 73.46313591 -52.36431084 73.46313591 -52.38130188 72.23396301 C-52.48157238 64.65676034 -52.55765517 57.07988024 -52.60671711 49.50218678 C-52.63278878 45.60655684 -52.66814052 41.71147602 -52.72485352 37.81616211 C-52.77926289 34.05544849 -52.80909508 30.29526231 -52.82204247 26.53418541 C-52.8312666 25.10082383 -52.84927996 23.66749047 -52.87630653 22.23435402 C-52.91270384 20.22398769 -52.91469952 18.21308828 -52.9152832 16.20239258 C-52.93193779 14.48697014 -52.93193779 14.48697014 -52.94892883 12.7368927 C-52.16089378 8.71472418 -50.46213088 7.23726203 -47.34765625 4.66796875 C-45.11865234 3.76489258 -45.11865234 3.76489258 -42.87109375 3.375 C-41.62610107 3.14345215 -41.62610107 3.14345215 -40.35595703 2.90722656 C-39.48696777 2.76639648 -38.61797852 2.62556641 -37.72265625 2.48046875 C-36.82401855 2.32030273 -35.92538086 2.16013672 -34.99951172 1.99511719 C-33.23079958 1.68086437 -31.46079277 1.37379449 -29.68945312 1.07470703 C-26.93369766 0.59606977 -24.20742457 0.00340568 -21.47265625 -0.58203125 C-5.86481813 -3.32762559 -5.86481813 -3.32762559 0 0 Z " fill="#000000" transform="translate(1871.34765625,187.33203125)"/>
<path d="M0 0 C1.13333519 -0.00642769 1.13333519 -0.00642769 2.28956604 -0.01298523 C3.88224285 -0.01870951 5.4749458 -0.01924285 7.06762695 -0.01489258 C9.49280774 -0.01173321 11.91676671 -0.03521184 14.34179688 -0.06054688 C15.89452972 -0.06282028 17.44726583 -0.06352317 19 -0.0625 C19.71892929 -0.07170975 20.43785858 -0.08091949 21.17857361 -0.09040833 C25.89614872 -0.04745657 29.10962418 0.72167844 33.06640625 3.30078125 C36.57402794 6.96960065 37.5666152 9.21899597 37.56977081 14.27442932 C37.5802018 15.47958915 37.59063279 16.68474897 37.60137987 17.92642879 C37.59273202 19.26028112 37.58370541 20.59413103 37.57434082 21.92797852 C37.57894984 23.34766816 37.58530277 24.76735304 37.5932498 26.18702793 C37.60996639 30.08834924 37.60168638 33.98927977 37.58930492 37.89060259 C37.58026621 42.09790238 37.59421829 46.30513429 37.60522461 50.51242065 C37.62302705 58.75452911 37.61916219 66.99649201 37.60757405 75.23860621 C37.59854677 81.93611138 37.59731266 88.6335757 37.60166931 95.33108521 C37.60228224 96.28368841 37.60289518 97.23629161 37.60352668 98.21776158 C37.60480556 100.15285326 37.60610241 102.08794494 37.60741705 104.0230366 C37.6188279 122.17569683 37.60570122 140.32827631 37.58421558 158.4809233 C37.56634414 174.06251796 37.56944811 189.64399343 37.58789062 205.22558594 C37.60928842 223.31252856 37.61772921 241.39940037 37.60544157 259.48635387 C37.60416735 261.414395 37.60290987 263.34243614 37.60166931 265.27047729 C37.60105221 266.21915273 37.60043511 267.16782816 37.59979931 268.14525133 C37.59634313 274.83603809 37.60218051 281.52678 37.61158752 288.21755981 C37.62279677 296.36951332 37.61979013 304.52131272 37.59846455 312.67324853 C37.58793961 316.83388645 37.58385673 320.99426729 37.59706116 325.15490341 C37.60896125 328.96208261 37.60246245 332.7687659 37.58115095 336.57589996 C37.57667469 337.9546948 37.57897414 339.33353134 37.5886541 340.71229947 C37.60078825 342.58388195 37.58596961 344.45558146 37.56977081 346.32713318 C37.5691214 347.36751456 37.56847199 348.40789595 37.56780291 349.47980404 C36.93588286 353.03513697 35.5373008 354.71704647 33.06640625 357.30078125 C30.81250886 358.42772994 29.56430338 358.43841111 27.06323242 358.46191406 C25.82635933 358.47632538 25.82635933 358.47632538 24.5644989 358.49102783 C23.67180801 358.49527771 22.77911713 358.49952759 21.859375 358.50390625 C20.94182938 358.50960632 20.02428375 358.5153064 19.07893372 358.5211792 C17.1345841 358.53063558 15.19021841 358.53716571 13.24584961 358.54101562 C10.27624371 358.55070834 7.30733362 358.58172028 4.33789062 358.61328125 C2.44922286 358.61981259 0.56055015 358.62506254 -1.328125 358.62890625 C-2.21474319 358.64125305 -3.10136139 358.65359985 -4.0148468 358.6663208 C-8.7714839 358.64920512 -12.1547928 358.52868743 -15.93359375 355.30078125 C-18.03579251 351.99951422 -18.18637274 349.34062144 -18.19365597 345.46859169 C-18.20072156 344.26952301 -18.20778715 343.07045432 -18.21506685 341.83505023 C-18.21265177 340.51619904 -18.21023668 339.19734786 -18.20774841 337.83853149 C-18.21220004 336.42454602 -18.21751384 335.01056304 -18.22361714 333.59658372 C-18.23781645 329.7064458 -18.23946007 325.8163877 -18.23902023 321.92622757 C-18.24066671 317.73253471 -18.25372998 313.5388749 -18.26521301 309.34519958 C-18.28807409 300.17383896 -18.29598462 291.00250145 -18.30103946 281.8311162 C-18.3042948 276.10623231 -18.31081624 270.38135515 -18.31804085 264.65647507 C-18.33760721 248.81038186 -18.35401154 232.96429492 -18.35691738 217.11818886 C-18.35710495 216.10394805 -18.35729252 215.08970725 -18.35748577 214.04473188 C-18.35785203 211.98856727 -18.35821573 209.93240267 -18.35857689 207.87623806 C-18.3588511 206.34518577 -18.3588511 206.34518577 -18.35913086 204.78320312 C-18.35931141 203.76125813 -18.35949196 202.73931313 -18.35967798 201.6864001 C-18.36322106 185.12017544 -18.39025168 168.55408065 -18.42762875 151.98790105 C-18.46568342 134.98557188 -18.48507464 117.98330721 -18.48537689 100.9809345 C-18.48596206 91.43225877 -18.49449224 81.883738 -18.52337456 72.33510208 C-18.54785035 64.20583929 -18.55519705 56.07678799 -18.54012703 47.94749834 C-18.5329428 43.79882654 -18.53388023 39.65057271 -18.55653763 35.5019474 C-18.57707885 31.70447557 -18.5745737 27.9077443 -18.55366278 24.11028092 C-18.54849756 22.08482727 -18.56798451 20.05935719 -18.58832449 18.03399909 C-18.4970659 8.2114224 -18.4970659 8.2114224 -15.53996372 4.52828026 C-10.59924654 0.30576283 -6.33374806 -0.00800693 0 0 Z " fill="#000000" transform="translate(2783.93359375,261.69921875)"/>
<path d="M0 0 C0.79853394 -0.00287018 1.59706787 -0.00574036 2.4197998 -0.00869751 C4.10067457 -0.01073033 5.78157342 -0.00525539 7.46240234 0.00732422 C10.02365411 0.02338985 12.5833281 0.00744972 15.14453125 -0.01171875 C16.78385762 -0.00973618 18.42318302 -0.00589221 20.0625 0 C21.20180969 -0.00910904 21.20180969 -0.00910904 22.36413574 -0.0184021 C27.11263703 0.04388268 30.47838261 0.67295118 34.53125 3.3984375 C38.22428427 7.6468924 37.99869983 12.06593565 38 17.42578125 C38.01142029 18.72558678 38.01142029 18.72558678 38.02307129 20.051651 C38.03385024 21.87970099 38.03673437 23.70781246 38.03222656 25.53588867 C38.03125423 28.32380423 38.07289821 31.10896586 38.1171875 33.89648438 C38.12239506 35.67707762 38.12508268 37.45768039 38.125 39.23828125 C38.1495929 40.48072853 38.1495929 40.48072853 38.17468262 41.74827576 C38.12547579 45.89530887 37.80311323 48.59934809 35.18164062 51.90844727 C30.86070059 55.96788605 26.76340894 55.57155519 21.13671875 55.6015625 C20.31174393 55.60726257 19.4867691 55.61296265 18.63679504 55.61883545 C16.89093302 55.62827873 15.14505323 55.63481676 13.39916992 55.63867188 C10.73910082 55.64836336 8.07980922 55.67938662 5.41992188 55.7109375 C3.72135874 55.71746939 2.0227901 55.72271913 0.32421875 55.7265625 C-0.86201836 55.7450827 -0.86201836 55.7450827 -2.07221985 55.76397705 C-6.91698354 55.74460775 -10.33972605 55.20334595 -14.46875 52.3984375 C-18.13410358 48.16910896 -17.9070309 43.87956346 -17.8671875 38.5546875 C-17.87005768 37.70797485 -17.87292786 36.86126221 -17.87588501 35.9888916 C-17.87792104 34.20368783 -17.8724235 32.41846152 -17.85986328 30.63330078 C-17.84380262 27.90736812 -17.85972718 25.18291803 -17.87890625 22.45703125 C-17.87692374 20.71874674 -17.87307989 18.98046315 -17.8671875 17.2421875 C-17.87326019 16.43060181 -17.87933289 15.61901611 -17.8855896 14.78283691 C-17.82902576 10.2112261 -17.5875163 6.99707732 -14.46875 3.3984375 C-9.68473162 0.18126423 -5.56239985 -0.04447265 0 0 Z " fill="#000000" transform="translate(2783.46875,155.6015625)"/>
</svg>
